<svg xmlns="http://www.w3.org/2000/svg" width="512" height="512" viewBox="0 0 512 512" version="1.1">
	<path d="M 227.500 65.165 C 192.843 69.081, 156.838 84.279, 129.365 106.589 C 48.225 172.479, 34.422 288.857, 97.826 372.500 C 103.875 380.480, 119.801 396.816, 128.500 403.963 C 138.787 412.414, 153.020 421.483, 165.500 427.539 C 248.841 467.977, 348.391 443.697, 403.464 369.500 C 409.334 361.591, 419.531 345.171, 418.909 344.628 C 418.684 344.432, 383.850 364.921, 341.500 390.160 C 297.733 416.243, 262.372 436.686, 259.568 437.524 C 249.426 440.559, 236.844 438.429, 227.681 432.124 C 222.096 428.282, 218.984 424.348, 215.290 416.458 L 212.500 410.500 212.647 313.726 L 212.793 216.953 205.996 223.365 C 194.846 233.883, 181.818 239, 166.184 239 C 143.686 239, 123.591 226.586, 114.178 206.872 C 109.512 197.100, 107.994 190.656, 108.015 180.701 C 108.047 165.244, 113.937 151.106, 124.999 139.935 C 136.423 128.398, 149.402 123, 165.716 123 C 183.177 123, 194.474 127.578, 206.943 139.707 C 211.037 143.689, 214.436 146.846, 214.497 146.723 C 214.557 146.601, 215.440 144.586, 216.457 142.246 C 217.475 139.906, 220.486 135.720, 223.148 132.943 C 233.918 121.710, 251.840 118.343, 265.158 125.053 C 269.603 127.292, 300.895 145.762, 302.252 146.948 C 302.666 147.309, 301.436 150.722, 299.520 154.532 C 282.722 187.919, 300.774 227.887, 337 237.515 C 344.240 239.439, 358.686 239.395, 366.284 237.426 C 381.601 233.457, 393.186 224.377, 403.562 208.209 C 403.664 208.049, 411.568 212.628, 421.124 218.385 C 430.681 224.141, 438.645 228.449, 438.822 227.958 C 439.302 226.629, 436.183 211.752, 433.291 201.570 C 420.371 156.096, 388.273 115.059, 346.305 90.360 C 311.055 69.614, 268.326 60.553, 227.500 65.165 M 334.972 124.877 C 325.728 127.835, 316.971 133.140, 310.272 139.839 C 306.769 143.342, 304.064 146.691, 304.260 147.281 C 304.819 148.957, 402.110 207.172, 403.476 206.648 C 404.144 206.391, 405.773 202.878, 407.095 198.841 C 410.516 188.399, 410.501 173.557, 407.060 163.050 C 400.948 144.387, 385.089 129.384, 366.297 124.489 C 358.335 122.415, 342.032 122.617, 334.972 124.877 M 213.565 150.250 C 213.304 151.488, 212.931 166.844, 212.736 184.375 C 212.384 215.907, 212.400 216.224, 214.295 213.884 C 223.285 202.782, 227.103 180.584, 222.608 165.552 C 220.879 159.773, 215.444 148, 214.505 148 C 214.248 148, 213.825 149.012, 213.565 150.250 M 440.143 236.718 C 442.500 257.921, 440.037 285.706, 433.868 307.500 C 431.422 316.139, 425.518 331.889, 422.340 338.250 C 421.034 340.863, 420.145 343, 420.363 343 C 420.982 343, 471.038 313.158, 475.334 310.227 C 484.653 303.869, 490.756 290.007, 489.750 277.479 C 489.082 269.148, 484.608 259.737, 478.750 254.338 C 475.136 251.006, 445.142 232.143, 440.826 230.487 C 439.621 230.024, 439.511 231.026, 440.143 236.718" stroke="none" fill="black" fill-rule="evenodd"/>
</svg>